<?xml version="1.0" encoding="UTF-8"?>
<svg version="1.1" xmlns="http://www.w3.org/2000/svg" width="512" height="512">
<path d="M0 0 C89.43 0 178.86 0 271 0 C271 79.53 271 159.06 271 241 C181.57 241 92.14 241 0 241 C0 161.47 0 81.94 0 0 Z M30 30 C30 89.73 30 149.46 30 211 C99.63 211 169.26 211 241 211 C241 151.27 241 91.54 241 30 C171.37 30 101.74 30 30 30 Z " fill="#000000" transform="translate(241,271)"/>
<path d="M0 0 C89.43 0 178.86 0 271 0 C271 79.53 271 159.06 271 241 C181.57 241 92.14 241 0 241 C0 161.47 0 81.94 0 0 Z M30 30 C30 89.73 30 149.46 30 211 C99.63 211 169.26 211 241 211 C241 151.27 241 91.54 241 30 C171.37 30 101.74 30 30 30 Z " fill="#000000" transform="translate(0,0)"/>
<path d="M0 0 C8.72007873 -0.09344304 17.43998026 -0.16413614 26.1604538 -0.20724869 C30.21148089 -0.2279599 34.26216087 -0.25596827 38.31298828 -0.30175781 C42.23582781 -0.34581371 46.15833746 -0.36926019 50.08140564 -0.37950897 C51.5642566 -0.38679496 53.04709334 -0.40101572 54.52980042 -0.42292023 C80.18249187 -0.78617967 103.58699935 9.16037369 122 27 C143.17000394 49.09825022 148.56982429 75.32059233 148.1875 104.9375 C148.17241482 106.98892239 148.15873325 109.04035559 148.14648438 111.09179688 C148.11638812 116.06169208 148.05761645 121.03004763 148 126 C158.89 126 169.78 126 181 126 C177.02026583 131.30631222 173.0586837 136.3620028 168.6875 141.3125 C164.88723976 145.65442629 161.12888341 150.0125268 157.5 154.5 C153.42242873 159.53348541 149.19494085 164.42333309 144.94189453 169.30810547 C140.01987908 174.96419371 135.16927867 180.67768348 130.33837891 186.41162109 C128.08232576 189.0890895 125.822951 191.76374402 123.5625 194.4375 C123.11624268 194.96553223 122.66998535 195.49356445 122.21020508 196.03759766 C118.18475157 200.79449412 114.12813407 205.52446434 110.05883789 210.24389648 C107.30499867 213.44534624 104.61673204 216.68423553 102 220 C99.04688061 218.68904505 97.17235391 217.3658972 95.08203125 214.91015625 C94.29119141 213.98976562 94.29119141 213.98976562 93.484375 213.05078125 C92.93265625 212.39464844 92.3809375 211.73851562 91.8125 211.0625 C91.23371094 210.38445312 90.65492188 209.70640625 90.05859375 209.0078125 C86.09717795 204.35094815 82.22176813 199.62689004 78.375 194.875 C75.4750403 191.36452247 72.49238805 187.93170065 69.5 184.5 C65.00252023 179.34148689 60.61004548 174.11842906 56.30078125 168.80078125 C53.61941084 165.53670217 50.87937137 162.3274928 48.125 159.125 C47.61791504 158.53541504 47.11083008 157.94583008 46.58837891 157.33837891 C45.82726807 156.45351807 45.82726807 156.45351807 45.05078125 155.55078125 C22.89544592 129.79089184 22.89544592 129.79089184 21 126 C31.89 126 42.78 126 54 126 C53.87625 121.648125 53.7525 117.29625 53.625 112.8125 C53.59100098 111.46905518 53.55700195 110.12561035 53.52197266 108.74145508 C52.7200649 83.86961463 45.88122355 62.76466411 27.87109375 44.88671875 C23.91377348 41.45245299 19.90866753 38.8941947 15.17578125 36.671875 C1.82308518 30.3947957 1.82308518 30.3947957 -0.4453125 26.55078125 C-0.6875 24 -0.6875 24 -0.36157227 21.42651367 C0.09031109 17.14414843 0.07362946 12.92693339 0.04296875 8.625 C0.03986694 7.79355469 0.03676514 6.96210937 0.03356934 6.10546875 C0.02552807 4.07029762 0.01319964 2.03514421 0 0 Z M59 31 C60.4415027 34.21749774 62.35229779 36.99453332 64.37646484 39.87133789 C79.14189318 61.02961928 84.26844522 84.20360387 83.9921875 109.7578125 C83.98452866 110.99787048 83.97686981 112.23792847 83.96897888 113.51556396 C83.90444384 123.9438602 83.90444384 123.9438602 83.77734375 129.04248047 C82.80025431 147.15416466 82.80025431 147.15416466 90.8828125 162.5546875 C92.85909988 164.4649358 94.89958735 166.22097364 97 168 C98.00075618 169.33276587 99.00106794 170.66586638 100 172 C100.66 172 101.32 172 102 172 C103.47769218 170.36567245 104.88269319 168.66523632 106.25 166.9375 C110.91975456 161.06810159 110.91975456 161.06810159 112.52957153 159.7019043 C116.68099443 155.90827836 117.45753033 152.68865272 117.74462891 147.12524414 C117.79289182 144.34364137 117.76484939 141.5667343 117.7265625 138.78515625 C117.72552275 137.28649396 117.726568 135.78782893 117.72958374 134.28916931 C117.72940472 131.14931415 117.70865971 128.01049038 117.67236328 124.87084961 C117.62734093 120.89374038 117.62583975 116.91815848 117.63939857 112.94086552 C117.64616855 109.84245319 117.63264578 106.74437331 117.61314011 103.6460247 C117.60556325 102.1827819 117.60308537 100.71950162 117.6063118 99.25624275 C117.61374303 79.0760658 112.51325723 62.58845545 98 48 C97.40832031 47.37351562 96.81664062 46.74703125 96.20703125 46.1015625 C87.3136289 37.42411474 73.80936387 31.30910049 61.4375 30.875 C60.633125 30.91625 59.82875 30.9575 59 31 Z " fill="#000000" transform="translate(310,29)"/>
<path d="M0 0 C2.95311939 1.31095495 4.82764609 2.6341028 6.91796875 5.08984375 C7.44519531 5.7034375 7.97242187 6.31703125 8.515625 6.94921875 C9.06734375 7.60535156 9.6190625 8.26148438 10.1875 8.9375 C10.76628906 9.61554688 11.34507813 10.29359375 11.94140625 10.9921875 C15.90282205 15.64905185 19.77823187 20.37310996 23.625 25.125 C26.5249597 28.63547753 29.50761195 32.06829935 32.5 35.5 C36.99507698 40.65575716 41.38623222 45.87510878 45.69140625 51.19140625 C48.41344091 54.5029848 51.20139731 57.75313059 54 61 C58.28836722 65.97611789 62.4847326 71.01339013 66.62109375 76.1171875 C70.0749215 80.30261423 73.62630608 84.4032523 77.19140625 88.49414062 C81 92.89286804 81 92.89286804 81 94 C70.11 94 59.22 94 48 94 C48.72411174 125.28162701 50.78358101 151.90015474 74.1328125 175.12109375 C78.10861126 178.56355365 81.99071299 181.06492088 86.82421875 183.1171875 C99.90490424 188.80364366 99.90490424 188.80364366 101.95410156 192.91357422 C102.94610901 197.11925193 102.71149409 201.20390959 102.21621704 205.46604919 C101.96450183 208.41602007 101.9573837 211.3233213 101.97192383 214.28369141 C101.97597733 215.35648346 101.98003082 216.42927551 101.98420715 217.53457642 C101.98941879 218.3481662 101.99463043 219.16175598 102 220 C93.27992127 220.09344304 84.56001974 220.16413614 75.8395462 220.20724869 C71.78851911 220.2279599 67.73783913 220.25596827 63.68701172 220.30175781 C59.76417219 220.34581371 55.84166254 220.36926019 51.91859436 220.37950897 C50.4357434 220.38679496 48.95290666 220.40101572 47.47019958 220.42292023 C21.81750813 220.78617967 -1.58699935 210.83962631 -20 193 C-41.17000394 170.90174978 -46.56982429 144.67940767 -46.1875 115.0625 C-46.17241482 113.01107761 -46.15873325 110.95964441 -46.14648438 108.90820312 C-46.11638812 103.93830792 -46.05761645 98.96995237 -46 94 C-56.89 94 -67.78 94 -79 94 C-75.02026583 88.69368778 -71.0586837 83.6379972 -66.6875 78.6875 C-62.88723976 74.34557371 -59.12888341 69.9874732 -55.5 65.5 C-51.42242873 60.46651459 -47.19494085 55.57666691 -42.94189453 50.69189453 C-38.01987908 45.03580629 -33.16927867 39.32231652 -28.33837891 33.58837891 C-26.08232576 30.9109105 -23.822951 28.23625598 -21.5625 25.5625 C-21.11624268 25.03446777 -20.66998535 24.50643555 -20.21020508 23.96240234 C-16.18475157 19.20550588 -12.12813407 14.47553566 -8.05883789 9.75610352 C-5.30499867 6.55465376 -2.61673204 3.31576447 0 0 Z M0 48 C-1.47769218 49.63432755 -2.88269319 51.33476368 -4.25 53.0625 C-8.92088555 58.93331994 -8.92088555 58.93331994 -10.52957153 60.28916931 C-14.72412594 64.10378132 -15.46031743 67.38054332 -15.74462891 72.98242188 C-15.79289747 75.81274379 -15.76485163 78.6384523 -15.7265625 81.46875 C-15.7255229 82.99222817 -15.72656755 84.51570903 -15.72958374 86.03918457 C-15.72940472 89.2303077 -15.70865787 92.42041593 -15.67236328 95.61132812 C-15.62729664 99.65802993 -15.62584801 103.70323157 -15.63939857 107.75011444 C-15.64615977 110.89909675 -15.63266239 114.04775102 -15.61314011 117.19667053 C-15.60555179 118.68585989 -15.60309042 120.17508618 -15.6063118 121.66429138 C-15.6135064 141.57626827 -10.31295241 157.61288721 4 172 C4.59167969 172.62648438 5.18335937 173.25296875 5.79296875 173.8984375 C14.6863711 182.57588526 28.19063613 188.69089951 40.5625 189.125 C41.366875 189.08375 42.17125 189.0425 43 189 C41.5584973 185.78250226 39.64770221 183.00546668 37.62353516 180.12866211 C22.85810682 158.97038072 17.73155478 135.79639613 18.0078125 110.2421875 C18.01547134 109.00212952 18.02313019 107.76207153 18.03102112 106.48443604 C18.09555616 96.0561398 18.09555616 96.0561398 18.22265625 90.95751953 C19.19974569 72.84583534 19.19974569 72.84583534 11.1171875 57.4453125 C9.14090012 55.5350642 7.10041265 53.77902636 5 52 C3.99924382 50.66723413 2.99893206 49.33413362 2 48 C1.34 48 0.68 48 0 48 Z " fill="#000000" transform="translate(101,263)"/>
<path d="M0 0 C-0.64384931 3.52642269 -2.08025613 5.94251216 -4.0546875 8.9140625 C-4.66957031 9.83960938 -5.28445313 10.76515625 -5.91796875 11.71875 C-6.56378906 12.6778125 -7.20960938 13.636875 -7.875 14.625 C-8.51308594 15.59179688 -9.15117187 16.55859375 -9.80859375 17.5546875 C-10.73478516 18.93914062 -10.73478516 18.93914062 -11.6796875 20.3515625 C-12.24413574 21.19541504 -12.80858398 22.03926758 -13.39013672 22.90869141 C-15 25 -15 25 -18 27 C-19.76953125 26.3203125 -19.76953125 26.3203125 -21.8125 25.125 C-28.9461192 21.68640904 -37.76003086 21.68894444 -45.3125 24 C-52.46619486 27.27685377 -58.15629951 32.99837482 -61.34375 40.140625 C-64.24874078 48.37143221 -63.91956245 56.69025606 -60.328125 64.64453125 C-56.37969263 71.64719219 -50.991335 77.07280909 -43.21484375 79.57421875 C-36.28706652 80.90601367 -28.42080565 81.53814188 -22.375 77.5 C-21.52035156 76.80390625 -21.52035156 76.80390625 -20.6484375 76.09375 C-19 75 -19 75 -15 75 C-12.78650871 76.64547897 -10.78813177 78.28526257 -8.75 80.125 C-7.59653295 81.13580695 -6.4415876 82.1449295 -5.28515625 83.15234375 C-4.44621826 83.88686768 -4.44621826 83.88686768 -3.59033203 84.63623047 C-0.52141669 87.2679408 2.72959851 89.62735578 6 92 C4.80653147 97.89275086 0.54442801 100.73758775 -4.1875 104.0625 C-17.59845641 112.76392323 -33.52966173 114.19234819 -49.10546875 111.38671875 C-57.70740112 109.1803474 -64.77653121 105.02990129 -72 100 C-73.0725 99.2575 -74.145 98.515 -75.25 97.75 C-87.13921514 85.86078486 -95.11900859 70.98655303 -95.32983398 54.01245117 C-95.20058206 36.21027389 -89.79363543 19.94672167 -77 7 C-54.68318252 -12.7527576 -25.51123946 -14.05133731 0 0 Z " fill="#000000" transform="translate(393,340)"/>
<path d="M0 0 C19.47 0 38.94 0 59 0 C59 9.9 59 19.8 59 30 C49.76 30 40.52 30 31 30 C31 37.59 31 45.18 31 53 C39.25 53 47.5 53 56 53 C56 63.23 56 73.46 56 84 C47.75 84 39.5 84 31 84 C31 96.21 31 108.42 31 121 C20.77 121 10.54 121 0 121 C0 81.07 0 41.14 0 0 Z " fill="#000000" transform="translate(77,60)"/>
<path d="M0 0 C9.9 0 19.8 0 30 0 C30 9.9 30 19.8 30 30 C20.1 30 10.2 30 0 30 C0 20.1 0 10.2 0 0 Z " fill="#000000" transform="translate(422,331)"/>
<path d="M0 0 C9.9 0 19.8 0 30 0 C30 9.9 30 19.8 30 30 C20.1 30 10.2 30 0 30 C0 20.1 0 10.2 0 0 Z " fill="#000000" transform="translate(181,60)"/>
</svg>
